<svg id="visual" viewBox="0 0 1920 300" width="1920" height="300" xmlns="http://www.w3.org/2000/svg" xmlns:xlink="http://www.w3.org/1999/xlink" version="1.1">
<path fill="#fff" d="M0 37L29.2 42C58.3 47 116.7 57 174.8 59C233 61 291 55 349.2 56.5C407.3 58 465.7 67 523.8 70.5C582 74 640 72 698.2 77C756.3 82 814.7 94 872.8 96.5C931 99 989 92 1047.2 82C1105.3 72 1163.7 59 1221.8 52.5C1280 46 1338 46 1396.2 48.5C1454.3 51 1512.7 56 1570.8 64C1629 72 1687 83 1745.2 81.5C1803.3 80 1861.7 66 1890.8 59L1920 52L1920 0L1890.8 0C1861.7 0 1803.3 0 1745.2 0C1687 0 1629 0 1570.8 0C1512.7 0 1454.3 0 1396.2 0C1338 0 1280 0 1221.8 0C1163.7 0 1105.3 0 1047.2 0C989 0 931 0 872.8 0C814.7 0 756.3 0 698.2 0C640 0 582 0 523.8 0C465.7 0 407.3 0 349.2 0C291 0 233 0 174.8 0C116.7 0 58.3 0 29.2 0L0 0Z"></path>
<path fill="#f1f3f5" d="M0 214L29.2 217.5C58.3 221 116.7 228 174.8 213C233 198 291 161 349.2 151C407.3 141 465.7 158 523.8 168C582 178 640 181 698.2 183C756.3 185 814.7 186 872.8 194C931 202 989 217 1047.2 224C1105.3 231 1163.7 230 1221.8 224.5C1280 219 1338 209 1396.2 208.5C1454.3 208 1512.7 217 1570.8 216C1629 215 1687 204 1745.2 203C1803.3 202 1861.7 211 1890.8 215.5L1920 220L1920 50L1890.8 57C1861.7 64 1803.3 78 1745.2 79.5C1687 81 1629 70 1570.8 62C1512.7 54 1454.3 49 1396.2 46.5C1338 44 1280 44 1221.8 50.5C1163.7 57 1105.3 70 1047.2 80C989 90 931 97 872.8 94.5C814.7 92 756.3 80 698.2 75C640 70 582 72 523.8 68.5C465.7 65 407.3 56 349.2 54.5C291 53 233 59 174.8 57C116.7 55 58.3 45 29.2 40L0 35Z"></path>
<path fill="#e9ecef" d="M0 301L29.2 301C58.3 301 116.7 301 174.8 301C233 301 291 301 349.2 301C407.3 301 465.7 301 523.8 301C582 301 640 301 698.2 301C756.3 301 814.7 301 872.8 301C931 301 989 301 1047.2 301C1105.3 301 1163.7 301 1221.8 301C1280 301 1338 301 1396.2 301C1454.3 301 1512.7 301 1570.8 301C1629 301 1687 301 1745.2 301C1803.3 301 1861.7 301 1890.8 301L1920 301L1920 218L1890.8 213.5C1861.7 209 1803.3 200 1745.2 201C1687 202 1629 213 1570.8 214C1512.7 215 1454.3 206 1396.2 206.5C1338 207 1280 217 1221.8 222.5C1163.7 228 1105.3 229 1047.2 222C989 215 931 200 872.8 192C814.7 184 756.3 183 698.2 181C640 179 582 176 523.8 166C465.7 156 407.3 139 349.2 149C291 159 233 196 174.8 211C116.7 226 58.3 219 29.2 215.5L0 212Z"></path>
</svg>
