<svg id="visual" viewBox="0 0 1920 500" width="1920" height="500" xmlns="http://www.w3.org/2000/svg" xmlns:xlink="http://www.w3.org/1999/xlink" version="1.1">
<path fill="#fff" d="M0 31L29.2 37.7C58.3 44.3 116.7 57.7 174.8 61.8C233 66 291 61 349.2 57.7C407.3 54.3 465.7 52.7 523.8 51.8C582 51 640 51 698.2 55.2C756.3 59.3 814.7 67.7 872.8 63.5C931 59.3 989 42.7 1047.2 40.2C1105.3 37.7 1163.7 49.3 1221.8 49.3C1280 49.3 1338 37.7 1396.2 34.3C1454.3 31 1512.7 36 1570.8 41.8C1629 47.7 1687 54.3 1745.2 56C1803.3 57.7 1861.7 54.3 1890.8 52.7L1920 51L1920 0L1890.8 0C1861.7 0 1803.3 0 1745.2 0C1687 0 1629 0 1570.8 0C1512.7 0 1454.3 0 1396.2 0C1338 0 1280 0 1221.8 0C1163.7 0 1105.3 0 1047.2 0C989 0 931 0 872.8 0C814.7 0 756.3 0 698.2 0C640 0 582 0 523.8 0C465.7 0 407.3 0 349.2 0C291 0 233 0 174.8 0C116.7 0 58.3 0 29.2 0L0 0Z" ></path>
<path fill="#f1f3f5" d="M0 166L29.2 174.3C58.3 182.7 116.7 199.3 174.8 198.5C233 197.7 291 179.3 349.2 164.3C407.3 149.3 465.7 137.7 523.8 132.7C582 127.7 640 129.3 698.2 135.2C756.3 141 814.7 151 872.8 144.3C931 137.7 989 114.3 1047.2 113.5C1105.3 112.7 1163.7 134.3 1221.8 151C1280 167.7 1338 179.3 1396.2 171.8C1454.3 164.3 1512.7 137.7 1570.8 125.2C1629 112.7 1687 114.3 1745.2 114.3C1803.3 114.3 1861.7 112.7 1890.8 111.8L1920 111L1920 49L1890.8 50.7C1861.7 52.3 1803.3 55.7 1745.2 54C1687 52.3 1629 45.7 1570.8 39.8C1512.7 34 1454.3 29 1396.2 32.3C1338 35.7 1280 47.3 1221.8 47.3C1163.7 47.3 1105.3 35.7 1047.2 38.2C989 40.7 931 57.3 872.8 61.5C814.7 65.7 756.3 57.3 698.2 53.2C640 49 582 49 523.8 49.8C465.7 50.7 407.3 52.3 349.2 55.7C291 59 233 64 174.8 59.8C116.7 55.7 58.3 42.3 29.2 35.7L0 29Z" ></path>
<path fill="#E9ECEF" d="M0 321L29.2 323.5C58.3 326 116.7 331 174.8 345.2C233 359.3 291 382.7 349.2 381C407.3 379.3 465.7 352.7 523.8 325.2C582 297.7 640 269.3 698.2 267.7C756.3 266 814.7 291 872.8 299.3C931 307.7 989 299.3 1047.2 295.2C1105.3 291 1163.7 291 1221.8 293.5C1280 296 1338 301 1396.2 313.5C1454.3 326 1512.7 346 1570.8 337.7C1629 329.3 1687 292.7 1745.2 281.8C1803.3 271 1861.7 286 1890.8 293.5L1920 301L1920 109L1890.8 109.8C1861.7 110.7 1803.3 112.3 1745.2 112.3C1687 112.3 1629 110.7 1570.8 123.2C1512.7 135.7 1454.3 162.3 1396.2 169.8C1338 177.3 1280 165.7 1221.8 149C1163.7 132.3 1105.3 110.7 1047.2 111.5C989 112.3 931 135.7 872.8 142.3C814.7 149 756.3 139 698.2 133.2C640 127.3 582 125.7 523.8 130.7C465.7 135.7 407.3 147.3 349.2 162.3C291 177.3 233 195.7 174.8 196.5C116.7 197.3 58.3 180.7 29.2 172.3L0 164Z" ></path>
<path fill="#E9ECEF" d="M0 401L29.2 400.2C58.3 399.3 116.7 397.7 174.8 405.2C233 412.7 291 429.3 349.2 429.3C407.3 429.3 465.7 412.7 523.8 396C582 379.3 640 362.7 698.2 366.8C756.3 371 814.7 396 872.8 393.5C931 391 989 361 1047.2 355.2C1105.3 349.3 1163.7 367.7 1221.8 373.5C1280 379.3 1338 372.7 1396.2 381C1454.3 389.3 1512.7 412.7 1570.8 410.2C1629 407.7 1687 379.3 1745.2 370.2C1803.3 361 1861.7 371 1890.8 376L1920 381L1920 299L1890.8 291.5C1861.7 284 1803.3 269 1745.2 279.8C1687 290.7 1629 327.3 1570.8 335.7C1512.7 344 1454.3 324 1396.2 311.5C1338 299 1280 294 1221.8 291.5C1163.7 289 1105.3 289 1047.2 293.2C989 297.3 931 305.7 872.8 297.3C814.7 289 756.3 264 698.2 265.7C640 267.3 582 295.7 523.8 323.2C465.7 350.7 407.3 377.3 349.2 379C291 380.7 233 357.3 174.8 343.2C116.7 329 58.3 324 29.2 321.5L0 319Z" ></path>
<path fill="#f1f3f5" d="M0 466L29.2 463.5C58.3 461 116.7 456 174.8 457.7C233 459.3 291 467.7 349.2 461.8C407.3 456 465.7 436 523.8 426.8C582 417.7 640 419.3 698.2 426.8C756.3 434.3 814.7 447.7 872.8 445.2C931 442.7 989 424.3 1047.2 424.3C1105.3 424.3 1163.7 442.7 1221.8 444.3C1280 446 1338 431 1396.2 432.7C1454.3 434.3 1512.7 452.7 1570.8 451.8C1629 451 1687 431 1745.2 419.3C1803.3 407.7 1861.7 404.3 1890.8 402.7L1920 401L1920 379L1890.8 374C1861.7 369 1803.3 359 1745.2 368.2C1687 377.3 1629 405.7 1570.8 408.2C1512.7 410.7 1454.3 387.3 1396.2 379C1338 370.7 1280 377.3 1221.8 371.5C1163.7 365.7 1105.3 347.3 1047.2 353.2C989 359 931 389 872.8 391.5C814.7 394 756.3 369 698.2 364.8C640 360.7 582 377.3 523.8 394C465.7 410.7 407.3 427.3 349.2 427.3C291 427.3 233 410.7 174.8 403.2C116.7 395.7 58.3 397.3 29.2 398.2L0 399Z" ></path>
<path fill="#fff" d="M0 501L29.2 501C58.3 501 116.7 501 174.8 501C233 501 291 501 349.2 501C407.3 501 465.7 501 523.8 501C582 501 640 501 698.2 501C756.3 501 814.7 501 872.8 501C931 501 989 501 1047.2 501C1105.3 501 1163.7 501 1221.8 501C1280 501 1338 501 1396.2 501C1454.3 501 1512.7 501 1570.8 501C1629 501 1687 501 1745.2 501C1803.3 501 1861.7 501 1890.8 501L1920 501L1920 399L1890.8 400.7C1861.7 402.3 1803.3 405.7 1745.2 417.3C1687 429 1629 449 1570.8 449.8C1512.7 450.7 1454.3 432.3 1396.2 430.7C1338 429 1280 444 1221.8 442.3C1163.7 440.7 1105.3 422.3 1047.2 422.3C989 422.3 931 440.7 872.8 443.2C814.7 445.7 756.3 432.3 698.2 424.8C640 417.3 582 415.7 523.8 424.8C465.7 434 407.3 454 349.2 459.8C291 465.7 233 457.3 174.8 455.7C116.7 454 58.3 459 29.2 461.5L0 464Z" ></path>
</svg>
